<svg xmlns="http://www.w3.org/2000/svg" viewBox="0 0 1200 300">
  <!-- Background -->
  <rect width="1200" height="300" fill="#1a1a1a"/>
  
  <!-- Gradient overlay -->
  <defs>
    <linearGradient id="grad" x1="0%" y1="0%" x2="100%" y2="0%">
      <stop offset="0%" style="stop-color:#6a0dad;stop-opacity:0.8" />
      <stop offset="100%" style="stop-color:#ff5722;stop-opacity:0.7" />
    </linearGradient>
    
    <!-- Glow filter -->
    <filter id="glow" x="-50%" y="-50%" width="200%" height="200%">
      <feGaussianBlur stdDeviation="10" result="blur" />
      <feComposite in="SourceGraphic" in2="blur" operator="over" />
    </filter>
  </defs>
  <rect width="1200" height="300" fill="url(#grad)" opacity="0.7"/>
  
  <!-- Ripple effect -->
  <g opacity="0.3">
    <ellipse cx="900" cy="240" rx="180" ry="50" fill="white" filter="url(#glow)"/>
    <ellipse cx="900" cy="240" rx="120" ry="40" fill="white" filter="url(#glow)"/>
    <ellipse cx="900" cy="240" rx="90" ry="30" fill="white" filter="url(#glow)"/>
    <ellipse cx="900" cy="240" rx="60" ry="20" fill="white" filter="url(#glow)"/>
    <ellipse cx="900" cy="240" rx="30" ry="10" fill="white" filter="url(#glow)"/>
  </g>
  
  <!-- Stack of Documents -->
  <g filter="url(#glow)" opacity="0.9">
    <!-- Bottom document -->
    <rect x="840" y="80" width="120" height="160" fill="#f0f0f0" rx="5" ry="5" transform="rotate(-10 900 160)" 
          style="box-shadow: 0 4px 6px rgba(0,0,0,0.1);"/>
    
    <!-- Middle document -->
    <rect x="850" y="60" width="120" height="160" fill="#ffffff" rx="5" ry="5" transform="rotate(-5 900 140)"
          style="box-shadow: 0 4px 6px rgba(0,0,0,0.1);"/>
    
    <!-- Top document -->
    <rect x="860" y="40" width="120" height="160" fill="#f5f5f5" rx="5" ry="5"
          style="box-shadow: 0 4px 6px rgba(0,0,0,0.1);"/>
    
    <!-- Subtle shading to create depth -->
    <path d="M860 40 L980 40 L950 60 L830 60 Z" fill="rgba(0,0,0,0.1)"/>
  </g>
  
  <!-- Main text - Stylized font -->
  <text x="120" y="160" font-family="Didot, 'Bodoni MT', 'Times New Roman', serif" font-size="120" font-weight="bold" fill="white" text-anchor="start" style="letter-spacing: 10px; text-shadow: 0px 0px 15px rgba(255,255,255,0.3);">DBUSE</text>
  
  <!-- Subtitle -->
  <text x="122" y="220" font-family="Didot, 'Bodoni MT', 'Times New Roman', serif" font-size="28" fill="rgba(255,255,255,0.8)" text-anchor="start" style="letter-spacing: 3px;">RAG Chatbot</text>
  
  <!-- Subtle decorative line under text -->
  <line x1="120" y1="240" x2="380" y2="240" stroke="rgba(255,255,255,0.4)" stroke-width="2"/>
</svg>
